<svg version="1.2" xmlns="http://www.w3.org/2000/svg" viewBox="0 0 1552 1639" width="1552" height="1639" role="img" aria-label="CCCC">
	<title>CCCC</title>
	<style>
		.s0 { fill: #ffffff }
	</style>
	<path class="s0" d="m1552 727.1l-76.4-76.5h-92.9c-29.7-105.5-86-200.1-161.9-275.7-113.6-114.2-271.1-184.8-444.5-184.8h-16.5v-113.7l-76.4-76.4-76.7 76.4v137c-264.9 74.4-460.2 318.1-460.2 606.2v16.2h-70.1l-76.4 76.4 76.4 76.4h93.5c29.4 105.6 85.7 200.2 161.6 275.7 114.2 113.7 271.1 184.6 444.8 184.6 5.5 0 11-0.3 16.4-0.3v114l76.2 76.4 76.4-76.4v-137c264.9-74.4 460.4-317.9 460.4-606 0-5.2-0.2-10.3-0.2-15.8h70.1zm-208.6-76.5h-292l-106.4-105.8v-190.9l-76.4-76.7-76.2 76.4v254.1l196.4 196.4h379.1c0 5.5 0.3 10.4 0.3 15.8 0 267.4-179.1 494.4-423.2 567v-292.4l106.4-105.8h191l76.8-76.5-76.8-76.4h-253.6l-196.1 196.4v379c-5.8 0-11 0.2-16.5 0.2-163.2 0-311.2-66.6-418.5-173.3-68.7-68.6-120.9-154-149.2-249.4h292.2l105.9 105.8v191.5l76.5 76.1 76.7-76.1v-253.8l-196.7-196.4h-379.1v-16.2c0-267 178.6-494.3 422.6-567.2v292.4l-105.9 105.8h-191.2l-76.7 76.5 76.7 77h253.6l196.7-196.7v-379.8h16.4c162.7 0 310.7 66.3 418.3 173.9 68.7 68.6 120.6 154 148.9 249.1zm-660-75.2l-151.8 152h-266.2l52.7-52.8h192.2l119.7-120v-468.4l53.1-53zm-152.1 336.8l152.1 152v265.9l-53.1-52.8v-191.7l-119.7-120-424.4-0.3-53.1-53.1zm337.6 152l152-152h266l-52.8 52.8h-192.7l-118.9 119.1v468.1l-53.1 53.1zm650.8-336.3h-498.7l-152.1-151.7v-266.2l52.8 53.1v191.7l119.7 120h425z"/>
	<path class="s0" d="m957.5 819.3l-181.5-181.4-181.5 181.4 181.5 181.5zm-32.9 0l-148.6 148.5-148.8-148.5 148.8-148.6z"/>
</svg>
